<svg width="18" height="18" viewBox="0 0 18 18" fill="none" xmlns="http://www.w3.org/2000/svg">
<g id="icon">
<path id="Vector" d="M9.00041 9.92251L4.56145 14.3615C4.44031 14.4826 4.28803 14.5446 4.10462 14.5474C3.92122 14.5502 3.76614 14.4882 3.63938 14.3615C3.51261 14.2347 3.44922 14.081 3.44922 13.9004C3.44922 13.7198 3.51261 13.5661 3.63938 13.4394L8.07832 9.00041L3.63938 4.56145C3.51822 4.44031 3.45624 4.28803 3.45344 4.10462C3.45063 3.92122 3.51261 3.76614 3.63938 3.63938C3.76614 3.51261 3.91982 3.44922 4.10042 3.44922C4.28102 3.44922 4.43469 3.51261 4.56145 3.63938L9.00041 8.07832L13.4394 3.63938C13.5605 3.51822 13.7128 3.45624 13.8962 3.45344C14.0796 3.45063 14.2347 3.51261 14.3615 3.63938C14.4882 3.76614 14.5516 3.91982 14.5516 4.10042C14.5516 4.28102 14.4882 4.43469 14.3615 4.56145L9.92251 9.00041L14.3615 13.4394C14.4826 13.5605 14.5446 13.7128 14.5474 13.8962C14.5502 14.0796 14.4882 14.2347 14.3615 14.3615C14.2347 14.4882 14.081 14.5516 13.9004 14.5516C13.7198 14.5516 13.5661 14.4882 13.4394 14.3615L9.00041 9.92251Z" fill="#F1F1F5"/>
</g>
</svg>
