<svg width="166" height="28" viewBox="0 0 166 28" fill="none" xmlns="http://www.w3.org/2000/svg">
<g id="Group 33624">
<g id="Group 33625">
<path id="Exclude" fill-rule="evenodd" clip-rule="evenodd" d="M2 0C0.895431 0 0 0.895428 0 2V21.0966C0 22.2012 0.895431 23.0966 2 23.0966H26.7159L32.3646 27.7679C33.0166 28.307 34.0019 27.8433 34.0019 26.9973L34.0022 21.1296C34.0023 21.1186 34.0024 21.1076 34.0024 21.0966V2C34.0024 0.895431 33.107 0 32.0024 0H2ZM6.66686 10.043C7.21914 10.043 7.66686 10.4907 7.66686 11.043V11.3986C7.66686 12.4633 8.40427 13.6778 10.1297 14.7011C11.8224 15.705 14.2488 16.3694 17.0009 16.3694C19.7529 16.3694 22.1793 15.705 23.872 14.7011C25.5974 13.6778 26.3349 12.4633 26.3349 11.3986V11.043C26.3349 10.4907 26.7826 10.043 27.3349 10.043H28.0017C28.554 10.043 29.0017 10.4907 29.0017 11.043V11.3986C29.0017 13.828 27.3511 15.7767 25.2157 17.0431C23.0476 18.329 20.1402 19.0808 17.0009 19.0808C13.8615 19.0808 10.9541 18.329 8.78597 17.0431C6.65058 15.7767 5 13.828 5 11.3986V11.043C5 10.4907 5.44772 10.043 6 10.043H6.66686Z" fill="url(#paint0_linear_2003_333)"/>
<g id="ZOA">
<path d="M118.23 20.084C118.12 20.084 118.03 19.9945 118.03 19.884V18.2332C118.03 18.1872 118.046 18.1425 118.075 18.1068L127.738 6.25758C127.839 6.13359 128.038 6.17262 128.084 6.32565L128.226 6.7912C128.265 6.91971 128.169 7.04953 128.035 7.04953H118.384C118.274 7.04953 118.184 6.95998 118.184 6.84953V4.81936C118.184 4.7089 118.274 4.61936 118.384 4.61936H130.679C130.79 4.61936 130.879 4.7089 130.879 4.81936V6.47019C130.879 6.51625 130.863 6.56089 130.834 6.59659L121.166 18.4522C121.066 18.5749 120.87 18.5382 120.821 18.3876L120.668 17.9157C120.626 17.7865 120.722 17.6539 120.858 17.6539H130.965C131.076 17.6539 131.165 17.7434 131.165 17.8539V19.884C131.165 19.9945 131.076 20.084 130.965 20.084H118.23Z" fill="url(#paint1_linear_2003_333)"/>
<path d="M140.61 20.305C139.407 20.305 138.3 20.1061 137.288 19.7085C136.276 19.3108 135.396 18.7585 134.647 18.0515C133.899 17.3299 133.32 16.4903 132.909 15.533C132.499 14.5609 132.293 13.5005 132.293 12.3517C132.293 11.2029 132.499 10.1498 132.909 9.19249C133.32 8.22042 133.899 7.38091 134.647 6.67395C135.396 5.95227 136.276 5.3926 137.288 4.99493C138.3 4.59727 139.4 4.39844 140.588 4.39844C141.791 4.39844 142.891 4.59727 143.888 4.99493C144.9 5.3926 145.78 5.95227 146.528 6.67395C147.276 7.38091 147.856 8.22042 148.266 9.19249C148.677 10.1498 148.882 11.2029 148.882 12.3517C148.882 13.5005 148.677 14.5609 148.266 15.533C147.856 16.5051 147.276 17.3446 146.528 18.0515C145.78 18.7585 144.9 19.3108 143.888 19.7085C142.891 20.1061 141.798 20.305 140.61 20.305ZM140.588 17.7864C141.365 17.7864 142.084 17.6539 142.744 17.3888C143.404 17.1237 143.976 16.7481 144.46 16.2621C144.944 15.7613 145.318 15.1869 145.582 14.5388C145.861 13.8761 146 13.147 146 12.3517C146 11.5564 145.861 10.8347 145.582 10.1866C145.318 9.52387 144.944 8.94947 144.46 8.46344C143.976 7.96268 143.404 7.57974 142.744 7.31463C142.084 7.04953 141.365 6.91697 140.588 6.91697C139.811 6.91697 139.092 7.04953 138.432 7.31463C137.786 7.57974 137.214 7.96268 136.716 8.46344C136.232 8.94947 135.85 9.52387 135.572 10.1866C135.308 10.8347 135.176 11.5564 135.176 12.3517C135.176 13.1323 135.308 13.854 135.572 14.5168C135.85 15.1795 136.232 15.7613 136.716 16.2621C137.2 16.7481 137.772 17.1237 138.432 17.3888C139.092 17.6539 139.811 17.7864 140.588 17.7864Z" fill="url(#paint2_linear_2003_333)"/>
<path d="M149.61 20.084C149.465 20.084 149.368 19.9346 149.427 19.8022L156.179 4.73757C156.211 4.66565 156.282 4.61936 156.361 4.61936H158.919C158.997 4.61936 159.069 4.66555 159.101 4.73735L165.874 19.802C165.933 19.9344 165.836 20.084 165.691 20.084H163.14C163.06 20.084 162.988 20.0363 162.956 19.9627L157.165 6.42239C157.108 6.29043 157.205 6.14374 157.349 6.14374H157.887C158.031 6.14374 158.127 6.29021 158.071 6.42214L152.301 19.9624C152.27 20.0362 152.197 20.084 152.117 20.084H149.61ZM152.771 16.5051C152.634 16.5051 152.538 16.3702 152.582 16.2404L153.215 14.387C153.243 14.306 153.319 14.2516 153.404 14.2516H161.435C161.521 14.2516 161.597 14.306 161.624 14.387L162.258 16.2404C162.302 16.3702 162.206 16.5051 162.068 16.5051H152.771Z" fill="url(#paint3_linear_2003_333)"/>
</g>
</g>
</g>
<defs>
<linearGradient id="paint0_linear_2003_333" x1="0" y1="0" x2="34.675" y2="0.859382" gradientUnits="userSpaceOnUse">
<stop stop-color="#5097FA"/>
<stop offset="1" stop-color="#5363FF"/>
</linearGradient>
<linearGradient id="paint1_linear_2003_333" x1="118.03" y1="4.39844" x2="166.795" y2="7.39969" gradientUnits="userSpaceOnUse">
<stop stop-color="#5097FA"/>
<stop offset="1" stop-color="#5363FF"/>
</linearGradient>
<linearGradient id="paint2_linear_2003_333" x1="118.03" y1="4.39844" x2="166.795" y2="7.39969" gradientUnits="userSpaceOnUse">
<stop stop-color="#5097FA"/>
<stop offset="1" stop-color="#5363FF"/>
</linearGradient>
<linearGradient id="paint3_linear_2003_333" x1="118.03" y1="4.39844" x2="166.795" y2="7.39969" gradientUnits="userSpaceOnUse">
<stop stop-color="#5097FA"/>
<stop offset="1" stop-color="#5363FF"/>
</linearGradient>
</defs>
</svg>
