<svg width="40" height="40" viewBox="0 0 40 40" fill="none" xmlns="http://www.w3.org/2000/svg">
<g id="icon">
<path id="Vector" d="M19.3246 20.6754H9.67544C9.48406 20.6754 9.32365 20.6105 9.19419 20.4808C9.06473 20.351 9 20.1902 9 19.9983C9 19.8065 9.06473 19.6462 9.19419 19.5175C9.32365 19.3889 9.48406 19.3246 9.67544 19.3246H19.3246V9.67544C19.3246 9.48406 19.3895 9.32365 19.5192 9.19419C19.649 9.06473 19.8098 9 20.0017 9C20.1935 9 20.3538 9.06473 20.4825 9.19419C20.6111 9.32365 20.6754 9.48406 20.6754 9.67544V19.3246H30.3246C30.5159 19.3246 30.6764 19.3895 30.8058 19.5192C30.9353 19.649 31 19.8098 31 20.0017C31 20.1935 30.9353 20.3538 30.8058 20.4825C30.6764 20.6111 30.5159 20.6754 30.3246 20.6754H20.6754V30.3246C20.6754 30.5159 20.6105 30.6764 20.4808 30.8058C20.351 30.9353 20.1902 31 19.9983 31C19.8065 31 19.6462 30.9353 19.5175 30.8058C19.3889 30.6764 19.3246 30.5159 19.3246 30.3246V20.6754Z" fill="#F1F1F5"/>
</g>
</svg>
