<svg width="18" height="18" viewBox="0 0 18 18" fill="none" xmlns="http://www.w3.org/2000/svg">
<g id="icon">
<path id="Vector" d="M9 13.3654L5.20721 15.6437C5.06598 15.7258 4.92444 15.7604 4.78259 15.7473C4.64072 15.7342 4.51229 15.6866 4.3973 15.6044C4.28233 15.5223 4.19359 15.4149 4.1311 15.2823C4.06859 15.1497 4.05859 15.0032 4.1011 14.8426L5.10787 10.5531L1.75942 7.66612C1.63444 7.55782 1.55476 7.4324 1.5204 7.28986C1.48603 7.14731 1.49509 7.00882 1.54757 6.87438C1.60007 6.73992 1.67569 6.63005 1.77444 6.54477C1.87318 6.4595 2.00816 6.40379 2.17939 6.37766L6.59837 5.99297L8.31383 1.94256C8.37632 1.79193 8.47099 1.68051 8.59785 1.6083C8.72472 1.5361 8.85877 1.5 9 1.5C9.14123 1.5 9.27528 1.5361 9.40215 1.6083C9.52901 1.68051 9.62368 1.79193 9.68617 1.94256L11.4016 5.99297L15.8206 6.37766C15.9918 6.40379 16.1268 6.4595 16.2256 6.54477C16.3243 6.63005 16.3999 6.73992 16.4524 6.87438C16.5049 7.00882 16.514 7.14731 16.4796 7.28986C16.4452 7.4324 16.3656 7.55782 16.2406 7.66612L12.8921 10.5531L13.8989 14.8426C13.9414 15.0032 13.9314 15.1497 13.8689 15.2823C13.8064 15.4149 13.7177 15.5223 13.6027 15.6044C13.4877 15.6866 13.3593 15.7342 13.2174 15.7473C13.0756 15.7604 12.934 15.7258 12.7928 15.6437L9 13.3654Z" fill="#9FA6B2"/>
</g>
</svg>
